<svg version="1.2" xmlns="http://www.w3.org/2000/svg" viewBox="0 0 4000 4000" width="4000" height="4000">
	<title>107-ai</title>
	<defs>
		<linearGradient id="g1" x2="1" gradientUnits="userSpaceOnUse" gradientTransform="matrix(202.974,4104.288,-4104.288,202.974,3080.557,33.048)">
			<stop offset="0" stop-color="#ecf955"/>
			<stop offset="1" stop-color="#1a85f8"/>
		</linearGradient>
		<linearGradient id="g2" x2="1" gradientUnits="userSpaceOnUse" gradientTransform="matrix(-2480.656,3811.074,-1232.735,-802.396,4915.558,2141.043)">
			<stop offset="0" stop-color="#ff00ff"/>
			<stop offset="1" stop-color="#00ffff"/>
		</linearGradient>
		<linearGradient id="g3" x2="1" gradientUnits="userSpaceOnUse" gradientTransform="matrix(-6521.637,948.486,-221.481,-1522.87,5293.712,2712.441)">
			<stop offset="0" stop-color="#ff00ff"/>
			<stop offset=".48" stop-color="#ff7a85"/>
			<stop offset="1" stop-color="#ffff00"/>
		</linearGradient>
		<linearGradient id="g4" x2="1" gradientUnits="userSpaceOnUse" gradientTransform="matrix(-1275.763,-3603.843,662.516,-234.531,-551.058,5068.592)">
			<stop offset="0" stop-color="#ff00ff"/>
			<stop offset=".48" stop-color="#ff7a85"/>
			<stop offset="1" stop-color="#ffff00"/>
		</linearGradient>
	</defs>
	<style>
		.s0 { fill: #ffffff } 
		.s1 { fill: url(#g1) } 
		.s2 { opacity: .3;fill: #005b50 } 
		.s3 { fill: url(#g2) } 
		.s4 { opacity: .3;fill: #3e005d } 
		.s5 { opacity: .3;fill: #1e003d } 
		.s6 { fill: url(#g3) } 
		.s7 { opacity: .3;fill: #8a0028 } 
		.s8 { fill: url(#g4) } 
		.s9 { opacity: .3;fill: #ffff00 } 
		.s10 { opacity: .3;fill: #ffffff } 
	</style>
	<g id="_Artboards_">
	</g>
	<g id="Layer 1">
		<g id="&lt;Group&gt;">
			<path id="&lt;Path&gt;" class="s0" d="m16.5 16.5h3967v3967h-3967z"/>
			<g id="&lt;Clip Group&gt;">
				<path id="&lt;Path&gt;" fill-rule="evenodd" class="s1" d="m2000 1121.1c626.5 0 1134.4 507.9 1134.4 1134.4 0 626.5-507.9 1134.3-1134.4 1134.3-626.5 0-1134.4-507.8-1134.4-1134.3 0-626.5 507.9-1134.4 1134.4-1134.4zm-879.5 1134.4c0 485.7 393.8 879.5 879.5 879.5 485.7 0 879.5-393.8 879.5-879.5 0-485.8-393.8-879.5-879.5-879.5-485.7 0-879.5 393.7-879.5 879.5z"/>
			</g>
			<path id="&lt;Path&gt;" class="s2" d="m2000 1121.1c104.9 0 206.4 14.3 302.7 40.9l80.5 301.6c-115.9-56.1-245.9-87.6-383.2-87.6-194.1 0-373.5 62.9-519 169.4l112.7-349.3c126.1-48.4 263.1-75 406.3-75z"/>
			<path id="&lt;Path&gt;" class="s2" d="m3096.5 1964c24.7 93 37.9 190.7 37.9 291.5 0 457.8-271.3 852.2-661.8 1031.5-45.3-78.7-86.4-160.6-117.9-226.6 309.1-136.3 524.8-445.4 524.8-804.9 0-78.6-10.4-154.7-29.7-227.2z"/>
			<path id="&lt;Path&gt;" class="s2" d="m1450.8 3248.2c-282.6-156.7-491.3-430.6-560.4-756.1 73.4-15 166.6-34.4 249.5-52.5 53.8 252.5 215.9 464.8 435.4 586.1-27.2 48.4-79.2 141.1-124.5 222.5z"/>
			<path id="&lt;Compound Path&gt;" fill-rule="evenodd" class="s2" d="m2000 1273c542.6 0 982.5 439.9 982.5 982.5 0 542.6-439.9 982.4-982.5 982.4-542.6 0-982.5-439.8-982.5-982.4 0-542.6 439.9-982.5 982.5-982.5zm-879.5 982.5c0 485.7 393.8 879.5 879.5 879.5 485.7 0 879.5-393.8 879.5-879.5 0-485.8-393.8-879.5-879.5-879.5-485.7 0-879.5 393.7-879.5 879.5z"/>
			<g id="&lt;Clip Group&gt;">
				<path id="&lt;Path&gt;" class="s3" d="m1976.8 1092.8l-240.7-58.2-913.8 2532.2c0 0 329.8 23.5 612.6-471.3 282.7-494.8 683.3-1767.1 683.3-1767.1z"/>
			</g>
			<path id="&lt;Path&gt;" class="s4" d="m1235.7 2421.3l-267.6 741.5 449.2-37.4c5.9-9.8 11.7-19.7 17.6-29.9 112.9-197.6 244.7-519.4 362.2-834.6z"/>
			<path id="&lt;Path&gt;" class="s5" d="m1976.8 1092.8l-240.7-58.2-135.8 376.5c88.5 215.5 179.2 430.5 271.8 644.5 140.7-392.7 246.1-727.2 246.1-727.2z"/>
			<g id="&lt;Clip Group&gt;">
				<path id="&lt;Path&gt;" class="s6" d="m1424.1 2433.6l2155.7-524.3c0 0 164.9 565.4-377 730.4-541.9 164.9-2803.9 518.3-2803.9 518.3 0 0-20.6-116.9 60.8-257.9 185.9-322 631.5-385.5 964.4-466.5z"/>
			</g>
			<path id="&lt;Path&gt;" class="s7" d="m1978.3 2298.8l646-157.1 201.5 589.6c-173 36.9-378.9 76.9-596.6 117.1q-13.5-28.3-26.9-56.6c-68.2-144.1-133.9-289.5-198.4-435.2q-12.8-28.9-25.6-57.8z"/>
			<g id="&lt;Clip Group&gt;">
				<path id="&lt;Path&gt;" class="s8" d="m1953.2 433.1l1131 3133.7c0 0-329.9 23.5-612.6-471.3-282.7-494.8-835.4-1783.9-835.4-1783.9z"/>
			</g>
			<path id="&lt;Path&gt;" class="s9" d="m2110.9 2595c-36.1-79.3-71.8-158.8-107-238.4q-12.8-28.9-25.6-57.8l-215.2 52.3-339 82.5c-66.7 16.2-137.8 31.7-210.5 48.7-290.4 68.1-605.2 160.2-753.9 417.8-81.4 141-60.8 257.9-60.8 257.9 0 0 44.5-263.2 709.7-384.7q21.4-3.9 43.5-7.6c151.8-25.3 315.5-53.9 479-83.1 164.2-29.4 328.3-59.5 479.8-87.6z"/>
			<path id="&lt;Path&gt;" class="s10" d="m1629 2383.8l-204.9 49.8c-66.7 16.2-137.8 31.7-210.5 48.7-290.4 68.1-605.2 160.2-753.9 417.8-81.4 141-60.8 257.9-60.8 257.9 0 0 44.5-263.2 709.7-384.7q21.4-3.9 43.5-7.6c151.8-25.3 315.5-53.9 479-83.1 102.9-18.4 205.7-37.1 305.4-55.4 0 0-501.6 67.8-784.4 91.3-282.7 23.6-235.6-94.2-141.3-141.3 94.2-47.2 329.8-47.2 518.3-23.6 0 0-106.6-80.5 99.9-169.8z"/>
			<path id="&lt;Path&gt;" class="s7" d="m2825.8 2731.3c159-33.9 290.1-65.2 377-91.6 541.9-165 377-730.4 377-730.4-22.8 439.4-754.8 550.1-754.8 550.1 0 0-31.2 6-86.4 16.7-13.6 2.6-28.6 5.5-44.9 8.7l92 255q20.4-4.3 40.1-8.5z"/>
			<path id="&lt;Path&gt;" class="s7" d="m2110.9 2595c-151.5 28.1-315.6 58.2-479.8 87.6-163.5 29.2-327.2 57.8-479 83.1q-22.1 3.7-43.5 7.6c-318.8 58.2-495 149-592.2 227.8 38.5-29.4 187.8-124.2 577.7-187.6 53.9-8.8 112.4-17 175.8-24.3 124.4-14.3 235.2-28.7 333.9-42.6 243.7-34.5 414.3-66.5 535.3-90.2 36.6-7.2 68.6-13.6 96.8-19.1q-14.4-29.8-29-60.2c-31.3 5.8-63.4 11.8-96 17.9z"/>
			<path id="&lt;Path&gt;" class="s5" d="m1872.1 2055.6c14-39 27.6-77.5 40.9-115.1-48.2-107.2-92.9-207.9-131.7-295.9-13.4 32.7-27.1 66.9-41.1 102.4-69.7 177.4-146 387.6-223.3 606.7q-11 31.3-22.1 62.7l268.3-65.3q12.7-33.2 25.2-66.6c28.9-77.1 57-154 83.8-228.9z"/>
			<path id="&lt;Path&gt;" class="s4" d="m1497.3 2977.9c-73.8 12.6-146.2 24.8-216.6 36.6-18.3 42.4-37.1 81.7-56 118-192.5 369.7-402.4 434.3-402.4 434.3 0 0 329.8 23.5 612.6-471.3l0.5-1c20.1-35.2 40.8-74.3 61.9-116.6z"/>
			<path id="&lt;Path&gt;" class="s7" d="m3084.2 3566.8c-194.9-181.9-404-514.2-552.5-775.7-120.9-212.9-201.5-378.9-201.5-378.9l-84.7-178.4-251.1-529.2-34.5-72.6c10.1 28 20.3 56.1 30.5 84.3 66.5 183.1 135.1 368.1 198.5 531.3 33.2 85.6 65 165.2 94.2 235.3 43.4 104.3 97.3 214.9 156.2 326 133.3 251.5 292.7 505.4 416.7 693.7 132.5 71 228.2 64.2 228.2 64.2z"/>
			<path id="&lt;Path&gt;" class="s10" d="m1742.5 1016.9l-6.4 17.7-25.8 71.5 249.6 525.9 34.5 72.6 251.1 529.2 84.7 178.4c0 0 80.6 166 201.5 378.9 148.5 261.5 357.6 593.8 552.5 775.7l-298.5-827-92-255-119.4-331-621.1-1720.7z"/>
			<path id="&lt;Path&gt;" class="s10" d="m1742.5 1016.9l-6.4 17.7-25.8 71.5 249.6 525.9 34.5 72.6 251.1 529.2 84.7 178.4c0 0 20.3 41.8 55.8 110.3 0 0-267.8-581.5-315-817.1-47.1-235.6 70.7-306.3 235.7-47.1 164.9 259.1 523 1203.3 523 1203.3l-44-121.8-92-255-119.4-331-621.1-1720.7z"/>
		</g>
	</g>
</svg>